<svg version="1.0" xmlns="http://www.w3.org/2000/svg"
 width="65.000000pt" height="65.000000pt" viewBox="0 0 558.000000 557.000000"
 preserveAspectRatio="xMidYMid meet">

<g transform="translate(0.000000,557.000000) scale(0.100000,-0.100000)"
fill="#000000" stroke="none">
<path d="M3278 5267 c-36 -29 -37 -29 -100 -18 -286 49 -616 33 -949 -45 -81
-19 -157 -34 -170 -34 -59 -1 -338 -71 -414 -105 -82 -36 -240 -171 -419 -359
-93 -97 -220 -222 -283 -277 -62 -56 -149 -141 -193 -190 -44 -49 -80 -88 -80
-86 0 3 56 115 125 251 115 224 125 249 119 284 -4 20 -8 39 -10 41 -14 16
-223 -127 -265 -181 -68 -87 -219 -431 -245 -556 -8 -41 -21 -84 -29 -96 -25
-40 -97 -367 -105 -476 -4 -58 -12 -118 -19 -133 -6 -16 -11 -74 -11 -130 0
-56 -5 -131 -10 -167 -6 -36 -15 -138 -20 -227 -10 -151 -9 -172 15 -330 48
-322 90 -483 162 -628 134 -265 433 -661 609 -802 32 -26 106 -91 164 -144
187 -171 338 -271 535 -355 61 -25 157 -68 215 -94 118 -53 247 -97 397 -135
87 -21 124 -25 257 -25 92 0 157 -4 161 -10 10 -15 276 -12 389 5 55 8 121 15
148 15 211 0 678 193 984 406 54 38 151 111 214 163 63 52 151 117 195 144 43
27 102 67 129 90 108 91 308 371 408 572 66 133 88 195 147 427 33 129 36 158
52 598 11 291 10 312 -10 447 -12 77 -32 191 -46 251 -14 61 -25 130 -25 154
0 71 -73 292 -150 453 -39 83 -85 182 -101 221 -16 39 -41 82 -55 95 -14 13
-66 80 -115 150 -109 153 -303 364 -424 460 -49 39 -103 86 -120 104 -69 74
-292 195 -458 250 -159 52 -297 48 -297 -7 0 -6 19 -29 41 -51 32 -30 39 -41
28 -47 -17 -11 -39 6 -39 31 0 26 -34 46 -130 75 -47 14 -103 31 -125 38 -38
13 -42 12 -77 -17z m-392 -1186 c22 -10 56 -37 75 -60 63 -72 75 -161 35 -246
-40 -87 -115 -135 -208 -135 -192 1 -300 221 -184 373 60 78 190 110 282 68z
m-539 -467 c142 -29 298 -95 390 -164 l52 -40 53 40 c136 103 338 171 552 186
l96 7 0 -117 c0 -102 2 -117 18 -122 73 -24 92 -59 92 -174 0 -98 -20 -142
-76 -162 l-34 -12 0 -171 0 -171 -122 -11 c-68 -7 -163 -24 -213 -38 -110 -32
-253 -99 -317 -148 l-48 -37 -67 47 c-80 54 -184 103 -281 132 -78 24 -245 51
-309 51 l-43 0 0 174 0 174 29 7 c16 3 38 16 50 29 62 66 33 165 -56 191 -23
6 -23 6 -23 -109 0 -108 -1 -116 -19 -116 -32 0 -80 48 -92 93 -15 56 -7 166
15 200 10 14 35 34 57 44 l39 17 0 114 0 115 90 -6 c49 -4 124 -14 167 -23z
m395 -1560 c37 -19 50 -47 42 -89 -7 -39 15 -85 41 -85 8 0 15 -4 15 -10 0 -5
-7 -10 -15 -10 -8 0 -15 -4 -15 -10 0 -5 -4 -10 -9 -10 -5 0 -7 8 -5 18 6 26
-26 56 -71 67 -28 7 -46 19 -60 42 -22 36 -50 41 -120 22 -58 -16 -85 -45 -85
-91 0 -54 24 -73 117 -93 138 -29 182 -45 218 -76 90 -79 59 -221 -61 -276
-113 -51 -228 -37 -310 39 -71 65 -87 113 -24 68 41 -29 140 -60 193 -60 100
0 157 38 157 105 0 65 -22 78 -190 110 -103 20 -154 50 -181 108 -23 51 -24
77 -4 125 41 96 127 136 270 125 39 -3 82 -12 97 -19z m1273 -19 c48 -49 71
-152 54 -247 -7 -37 -20 -81 -29 -96 -23 -38 -77 -62 -139 -62 l-51 0 0 -89
c0 -91 -11 -121 -45 -121 -32 0 -35 39 -33 342 l3 303 29 5 c15 3 62 4 103 2
69 -3 76 -6 108 -37z m-2582 -112 c2 -82 15 -215 27 -297 24 -164 23 -170 -36
-182 -25 -5 -36 -1 -52 16 -31 33 -88 147 -127 252 l-34 93 0 -166 c-1 -145
-3 -168 -17 -173 -28 -11 -52 3 -58 32 -11 52 -14 187 -6 207 5 11 9 14 9 8 1
-7 6 -13 11 -13 6 0 11 17 11 38 1 20 3 29 6 19 8 -29 23 -8 16 23 -4 21 -2
30 7 30 12 0 9 65 -7 130 l-6 25 -13 -30 -13 -30 -1 47 c0 48 13 69 33 49 6
-6 21 -11 33 -11 31 0 37 -11 77 -141 20 -64 46 -136 57 -160 l20 -44 1 45 2
45 7 -35 7 -35 3 30 c3 41 1 103 -6 212 -5 72 -9 90 -20 86 -11 -4 -14 5 -14
36 0 41 0 41 39 41 l38 0 6 -147z m285 129 c64 -14 62 -22 -6 -22 -50 0 -63
-3 -72 -19 -11 -21 -13 -153 -4 -211 l6 -35 64 3 c41 2 64 0 64 -7 0 -6 -27
-24 -59 -41 -33 -16 -62 -33 -64 -37 -8 -12 13 -187 23 -197 5 -5 22 2 40 18
35 29 72 41 95 32 14 -5 14 -8 0 -30 -29 -44 -87 -75 -152 -82 -57 -6 -62 -5
-76 17 -23 35 -35 129 -43 328 -7 191 -2 262 23 287 17 17 76 16 161 -4z
m1842 -21 c44 -35 60 -81 68 -196 l7 -90 37 -3 c30 -3 39 -8 44 -27 8 -33 0
-41 -46 -49 l-40 -6 0 -104 c0 -109 -9 -132 -47 -124 -23 4 -31 37 -32 137
l-1 83 -47 -7 c-80 -12 -82 -14 -85 -113 l-3 -87 -35 0 -35 0 -3 88 -3 87 -39
0 c-34 0 -41 4 -46 25 -8 32 -4 37 43 44 l38 6 5 135 c6 167 24 208 97 230 42
12 84 2 123 -29z m839 2 c50 -52 69 -136 54 -241 -6 -43 -19 -86 -30 -101 -28
-38 -80 -61 -140 -61 l-53 0 0 -94 c0 -70 -4 -97 -15 -106 -23 -19 -49 -8 -56
25 -9 39 -11 543 -3 584 l7 31 99 0 100 0 37 -37z m-2493 -18 c15 -14 30 -25
35 -25 4 0 10 -39 13 -87 4 -49 9 -108 13 -133 l6 -45 16 75 c9 41 20 81 24
88 10 16 87 5 103 -14 6 -8 17 -53 23 -102 22 -157 33 -132 27 61 -3 108 -1
177 5 177 5 0 9 -10 10 -22 0 -22 1 -22 9 -3 8 19 9 18 11 -5 2 -24 2 -24 6
-2 3 15 11 22 27 22 22 0 23 -5 29 -97 14 -199 4 -400 -20 -424 -14 -14 -84
-30 -104 -23 -18 5 -34 36 -60 114 -19 59 -21 57 -38 -35 -6 -33 -17 -65 -24
-71 -20 -19 -92 -27 -104 -12 -27 34 -51 227 -54 423 -2 187 -3 186 47 140z
m-759 -267 c-3 -7 -5 -2 -5 12 0 14 2 19 5 13 2 -7 2 -19 0 -25z"/>
<path d="M3428 3274 c-78 -42 -74 -166 7 -200 19 -8 37 -14 40 -14 3 0 5 52 5
115 0 124 -2 127 -52 99z"/>
<path d="M3850 1849 l0 -142 51 5 c75 8 84 21 84 131 0 123 -14 147 -85 147
l-50 0 0 -141z"/>
<path d="M1234 1847 c-1 -23 1 -36 3 -29 4 10 8 10 19 1 18 -15 18 -10 -4 34
l-17 36 -1 -42z"/>
<path d="M1242 1775 c0 -16 2 -22 5 -12 2 9 2 23 0 30 -3 6 -5 -1 -5 -18z"/>
<path d="M1587 2039 c-15 -9 -17 -21 -12 -91 3 -45 7 -83 9 -85 2 -2 6 20 9
49 4 28 11 54 16 57 5 3 12 23 16 44 8 40 -2 47 -38 26z"/>
<path d="M1551 1904 c0 -11 3 -14 6 -6 3 7 2 16 -1 19 -3 4 -6 -2 -5 -13z"/>
<path d="M3437 1903 c-15 -64 -18 -175 -6 -187 3 -4 32 -1 63 6 l58 11 -4 76
c-4 93 -31 154 -70 159 -25 3 -27 -1 -41 -65z"/>
<path d="M4230 1850 l0 -140 45 0 c61 0 89 28 99 97 7 58 -8 138 -32 166 -10
12 -30 17 -64 17 l-48 0 0 -140z"/>
<path d="M2212 1735 c0 -16 2 -22 5 -12 2 9 2 23 0 30 -3 6 -5 -1 -5 -18z"/>
</g>
</svg>
